<?xml version="1.0" ?><svg data-name="Layer 1" id="Layer_1" viewBox="0 0 512 512" xmlns="http://www.w3.org/2000/svg"><path d="M313.34,208.87l.13,16.58a5.38,5.38,0,0,0,5.38,5.34h0a5.37,5.37,0,0,0,5.34-5.42l-.12-16.56a68.19,68.19,0,0,0-45.61-64A44.25,44.25,0,0,0,255.6,62.7h-.18A44.28,44.28,0,0,0,233,145a68.14,68.14,0,0,0-45,64.39l.11,16.58a5.38,5.38,0,0,0,5.38,5.35h0a5.37,5.37,0,0,0,5.34-5.42l-.11-16.56a57.31,57.31,0,0,1,57.09-57.56H256A57.38,57.38,0,0,1,313.34,208.87ZM222.13,107.08a33.53,33.53,0,0,1,33.34-33.62h.13a33.48,33.48,0,0,1,.14,67c-8.48.52-17.36-3.4-23.7-9.7A33.2,33.2,0,0,1,222.13,107.08Z"/><path d="M196.71,318.68H142.66V284.52a256.32,256.32,0,0,0,45,13.88,24.33,24.33,0,0,0,10.45-47.53c-43.19-9.71-63.38-33-72.7-50.83a37.06,37.06,0,0,0-11.73-13.35,49.79,49.79,0,1,0-41.33.12,35,35,0,0,0-14.95,28.65V325.83a44.56,44.56,0,0,0,44.51,44.5h82.65v73.59a5.38,5.38,0,0,0,10.76,0V365a5.38,5.38,0,0,0-5.38-5.38h-88a33.79,33.79,0,0,1-33.75-33.74V215.46a24.23,24.23,0,0,1,24.21-24.2H94c9,0,17.4,5.28,21.85,13.77,10.37,19.85,32.65,45.73,79.88,56.34a13.57,13.57,0,1,1-5.83,26.5c-20-4.33-48.26-12.6-69-27.41-15-10.72-23.52-23.24-25.34-37.21a5.31,5.31,0,0,0-6-4.64,5.39,5.39,0,0,0-4.64,6c2.23,17,12.25,32,29.77,44.57a131.19,131.19,0,0,0,17.22,10.32v44.52a5.38,5.38,0,0,0,5.38,5.38h59.43A30.62,30.62,0,0,1,227.29,360v83.9a5.38,5.38,0,0,0,10.76,0V360A41.38,41.38,0,0,0,196.71,318.68ZM53.82,141.46a39,39,0,1,1,39,39A39.08,39.08,0,0,1,53.82,141.46Z"/><path d="M439.68,186.81a49.8,49.8,0,1,0-41.33-.12A37,37,0,0,0,386.63,200c-9.33,17.83-29.53,41.13-72.71,50.83a24.33,24.33,0,0,0,10.47,47.53,256,256,0,0,0,45-13.88v34.16H315.29A41.38,41.38,0,0,0,274,360v83.9a5.38,5.38,0,0,0,10.76,0V360a30.61,30.61,0,0,1,30.57-30.58h59.44a5.38,5.38,0,0,0,5.38-5.38V279.53a131,131,0,0,0,17.21-10.31c17.52-12.53,27.54-27.53,29.77-44.57a5.39,5.39,0,0,0-10.68-1.4c-1.82,14-10.35,26.49-25.34,37.21-20.71,14.81-48.92,23.08-68.95,27.41a13.57,13.57,0,1,1-5.85-26.5c47.21-10.6,69.51-36.49,79.89-56.34,4.44-8.49,12.81-13.77,21.84-13.77h1.68a24.22,24.22,0,0,1,24.19,24.2V325.83a33.79,33.79,0,0,1-33.75,33.74h-88a5.38,5.38,0,0,0-5.38,5.38v79a5.39,5.39,0,0,0,10.77,0V370.33h82.63a44.56,44.56,0,0,0,44.51-44.5V215.46A35,35,0,0,0,439.68,186.81Zm-59.57-45.35a39,39,0,1,1,39,39A39.09,39.09,0,0,1,380.11,141.46Z"/></svg>